#!OML:ASF H:\GeneralSubjects\Female5\Project 1\Capture day 1\Session 1\Female5.ASF
:FULLY-SPECIFIED
:DEGREES
505
root 3.34704 15.5735 -0.113261 -188.714 -8.50517 -175.638
lowerback 18.6803 5.65208 16.0733
upperback -5.91791 11.772 1.80216
thorax -14.6303 3.8407 -10.1409
lowerneck -14.5914 8.91112 15.5761
upperneck 37.6733 7.28213 -2.88558
head 17.052 4.03291 -2.8332
rclavicle 2.92213e-014 -1.90833e-014
rhumerus -41.4615 14.5547 -73.1456
rradius 43.3973
rwrist -0.783964
rhand -25.2927 -12.7616
rfingers 7.12502
rthumb 1.2289 -42.7378
lclavicle 2.92213e-014 -1.90833e-014
lhumerus -59.1862 -27.4927 88.034
lradius 68.3754
lwrist -13.7733
lhand -36.3152 28.7853
lfingers 7.12502
lthumb -9.41394 58.5551
rfemur 2.93735 15.8457 34.821
rtibia 13.4105
rfoot 351.519 -3.69505
rtoes -8.10529
lfemur -45.874 -14.8932 -20.8108
ltibia 77.1138
lfoot 348.112 16.1572
ltoes -71.4733
506
root 3.2896 15.5561 -0.121253 -188.774 -7.76864 -175.568
lowerback 18.5874 5.49001 15.7018
upperback -5.80333 11.455 2.15654
thorax -14.6597 3.7452 -9.4515
lowerneck -14.7536 8.82525 15.3747
upperneck 37.6874 7.16388 -2.88294
head 17.0672 3.94592 -2.82285
rclavicle 1.32192e-013 6.44062e-014
rhumerus -40.7186 14.871 -72.2227
rradius 42.8921
rwrist -0.63118
rhand -25.451 -12.8556
rfingers 7.12502
rthumb 1.076 -42.8326
lclavicle 1.32192e-013 6.44062e-014
lhumerus -59.8516 -26.7825 88.3896
lradius 66.722
lwrist -13.985
lhand -36.3415 27.4223
lfingers 7.12502
lthumb -9.43936 57.1909
rfemur 2.71594 15.7305 34.7231
rtibia 13.9109
rfoot 351.841 -2.97525
rtoes -10.3125
lfemur -45.7133 -14.4566 -21.571
ltibia 76.0912
lfoot 348.363 16.2467
ltoes -71.881
507
root 3.23697 15.5386 -0.122577 -188.823 -7.10082 -175.344
lowerback 18.5691 5.2681 15.3138
upperback -5.74317 11.0786 2.55864
thorax -14.8234 3.60504 -8.70129
lowerneck -14.8433 8.42985 14.6419
upperneck 37.5398 6.73565 -2.8196
head 16.8896 3.65706 -2.76309
rclavicle 1.0138e-014 7.95139e-016
rhumerus -40.0388 14.9799 -71.2466
rradius 42.638
rwrist -0.661918
rhand -25.2008 -12.6195
rfingers 7.12502
rthumb 1.31762 -42.5952
lclavicle 1.0138e-014 7.95139e-016
lhumerus -60.6872 -26.0272 88.8069
lradius 65.1917
lwrist -14.6647
lhand -36.4141 27.4675
lfingers 7.12502
lthumb -9.50934 57.233
rfemur 2.45819 15.9263 34.8781
rtibia 14.4184
rfoot 351.91 -2.56003
rtoes -11.514
lfemur -45.5555 -13.8343 -22.0631
ltibia 75.3075
lfoot 348.593 16.1165
ltoes -71.8356
508
root 3.18366 15.5233 -0.122403 -188.826 -6.44792 -175.191
lowerback 18.5489 5.00714 14.859
upperback -5.72623 10.6351 2.90645
thorax -15.044 3.43289 -7.96265
lowerneck -15.4544 8.35749 14.3874
upperneck 37.6032 6.72435 -3.09621
head 17.0626 3.57131 -2.83849
rclavicle 8.7664e-014 1.59028e-014
rhumerus -39.597 15.371 -70.4106
rradius 42.736
rwrist -1.06417
rhand -25.0179 -12.7555
rfingers 7.12502
rthumb 1.49431 -42.7301
lclavicle 8.7664e-014 1.59028e-014
lhumerus -61.5528 -25.4267 89.3721
lradius 63.4506
lwrist -15.4722
lhand -36.1914 27.2299
lfingers 7.12502
lthumb -9.29447 57.0051
rfemur 2.20577 16.0319 34.9009
rtibia 14.7994
rfoot 352.074 -2.04497
rtoes -12.7335
lfemur -45.2401 -12.9528 -22.5646
ltibia 74.6262
lfoot 348.967 16.2658
ltoes -71.9402
509
root 3.1278 15.5095 -0.123359 -188.808 -5.85503 -174.98
lowerback 18.3644 4.67905 14.3664
upperback -5.69045 10.0571 3.29887
thorax -15.1703 3.2189 -7.09212
lowerneck -16.1558 8.23355 13.9336
upperneck 37.6566 6.70148 -3.3845
head 17.2372 3.44759 -2.88874
rclavicle 7.41467e-014 -2.38542e-015
rhumerus -39.1087 16.0242 -69.6189
rradius 42.862
rwrist -1.54633
rhand -25.1202 -13.3049
rfingers 7.12502
rthumb 1.39545 -43.2801
lclavicle 7.41467e-014 -2.38542e-015
lhumerus -62.4003 -24.6444 89.9112
lradius 61.63
lwrist -15.892
lhand -36.6567 26.0379
lfingers 7.12502
lthumb -9.74347 55.7926
rfemur 2.02244 15.9777 34.9076
rtibia 14.9972
rfoot 352.269 -1.3884
rtoes -12.3426
lfemur -44.7419 -11.935 -22.9711
ltibia 74.1541
lfoot 349.231 16.8448
ltoes -72.2153
510
root 3.07062 15.4915 -0.121655 -188.663 -5.38369 -174.629
lowerback 18.0509 4.2359 14.0698
upperback -5.85825 9.36266 3.72862
thorax -15.4556 2.90637 -6.24002
lowerneck -16.3559 8.07273 13.2273
upperneck 37.756 6.70343 -3.57344
head 17.2933 3.29227 -2.86579
rclavicle 2.78299e-015 -1.04163e-013
rhumerus -38.6885 16.4603 -68.7704
rradius 42.7669
rwrist -1.87762
rhand -25.1911 -13.4131
rfingers 7.12502
rthumb 1.32697 -43.3887
lclavicle 2.78299e-015 -1.04163e-013
lhumerus -63.6876 -23.5023 90.5635
lradius 60.361
lwrist -16.9055
lhand -36.5506 28.4285
lfingers 7.12502
lthumb -9.64104 58.1879
rfemur 1.7946 15.9697 35.0323
rtibia 15.0152
rfoot 352.35 -0.837682
rtoes -10.1861
lfemur -44.3304 -10.7819 -23.1
ltibia 74.0873
lfoot 349.407 17.3413
ltoes -72.5874
